<svg width="24" height="24" viewBox="0 0 24 24" fill="none" xmlns="http://www.w3.org/2000/svg">
<path d="M20.025 24H3.975C2.61 24 1.5 22.89 1.5 21.525V9.975C1.5 8.61 2.61 7.5 3.975 7.5H20.025C21.39 7.5 22.5 8.61 22.5 9.975V21.51C22.5 22.875 21.39 23.985 20.025 23.985V24ZM3.975 9C3.435 9 3 9.435 3 9.975V21.51C3 22.05 3.435 22.485 3.975 22.485H20.025C20.565 22.485 21 22.05 21 21.51V9.975C21 9.435 20.565 9 20.025 9H3.975Z" fill="#343A40"/>
<path d="M18.81 9H5.19V6.81C5.19 3.06 8.25 0 12 0C15.75 0 18.81 3.06 18.81 6.81V9ZM6.69 7.5H17.31V6.81C17.31 3.885 14.925 1.5 12 1.5C9.075 1.5 6.69 3.885 6.69 6.81V7.5Z" fill="#343A40"/>
<path d="M18 17.25C18.8284 17.25 19.5 16.5784 19.5 15.75C19.5 14.9216 18.8284 14.25 18 14.25C17.1716 14.25 16.5 14.9216 16.5 15.75C16.5 16.5784 17.1716 17.25 18 17.25Z" fill="#343A40"/>
<path d="M12 17.25C12.8284 17.25 13.5 16.5784 13.5 15.75C13.5 14.9216 12.8284 14.25 12 14.25C11.1716 14.25 10.5 14.9216 10.5 15.75C10.5 16.5784 11.1716 17.25 12 17.25Z" fill="#343A40"/>
<path d="M6 17.25C6.82843 17.25 7.5 16.5784 7.5 15.75C7.5 14.9216 6.82843 14.25 6 14.25C5.17157 14.25 4.5 14.9216 4.5 15.75C4.5 16.5784 5.17157 17.25 6 17.25Z" fill="#343A40"/>
</svg>
